# xmcd
#
# Track frame offsets:
#	150
#	17180
#	32987
#	47630
#	65885
#	83685
#	97755
#	111695
#	128927
#	143640
#	158572
#	175692
#	189762
#	201387
#	202190
#	202857
#	203510
#	204222
#	205062
#	205775
#
# Disc length: 2749
#
# Revision: 1
# Processed by: cddbd v1.5.1PL0 Copyright (c) Steve Scherf et al.
# Submitted via: VisiTrax 2.9.5.180 - For more info visit www.synapsa.com
# Normalized: r0:DSETVAR1
#
DISCID=1b0abb14
DTITLE=Various Artist - CDX 116 August 1995
DYEAR=1995
DGENRE=
TTITLE0=Lorrie Morgan - Back in your arms again
TTITLE1=Jeff Copley - Evergreen
TTITLE2=Carlene Carter - Hurricane
TTITLE3=Perfect Stranger - I'm a stranger here myself
TTITLE4=Shelby Lynne - I'm not the one
TTITLE5=JOhn Michael Montgomery - No man's land
TTITLE6=Rick Trevino - Save this one for me
TTITLE7=Travis Tritt - Sometimes she forgets
TTITLE8=Baker and myers - These arms
TTITLE9=Rob Crosby - The trouble with love
TTITLE10=Lee roy Parnell - When a woman loves a man
TTITLE11=Don Williams - Crying in the rain
TTITLE12=Kevin Welch - I feel fine today
TTITLE13=Radney Foster - Liners
TTITLE14=Radney Foster - Liners
TTITLE15=Radney Foster - Liners
TTITLE16=Radney Foster - Liners
TTITLE17=Radney Foster - Liners
TTITLE18=Radney Foster - Liners
TTITLE19=Radney Foster - Liners
EXTD=
EXTT0=
EXTT1=
EXTT2=
EXTT3=
EXTT4=
EXTT5=
EXTT6=
EXTT7=
EXTT8=
EXTT9=
EXTT10=
EXTT11=
EXTT12=
EXTT13=
EXTT14=
EXTT15=
EXTT16=
EXTT17=
EXTT18=
EXTT19=
PLAYORDER=
